Coordinates
version=1
nRows=13
nColumns=38
inDegrees=no

Units are S.I. units (second, meters, Newtons, ...)
If the header above contains a line with 'inDegrees', this indicates whether rotational values are in degrees (yes) or radians (no).

endheader
time	pelvis_tilt	pelvis_list	pelvis_rotation	pelvis_tx	pelvis_ty	pelvis_tz	hip_flexion_r	hip_adduction_r	hip_rotation_r	knee_angle_r	ankle_angle_r	subtalar_angle_r	mtp_angle_r	hip_flexion_l	hip_adduction_l	hip_rotation_l	knee_angle_l	ankle_angle_l	subtalar_angle_l	mtp_angle_l	lumbar_extension	lumbar_bending	lumbar_rotation	arm_flex_r	arm_add_r	arm_rot_r	elbow_flex_r	pro_sup_r	wrist_flex_r	wrist_dev_r	arm_flex_l	arm_add_l	arm_rot_l	elbow_flex_l	pro_sup_l	wrist_flex_l	wrist_dev_l
0	1.69886	1.52565	0.0812452	0.717871	-0.641749	1.0215	0.312664	-0.0275413	-0.326351	0.0882962	-0.273001	0	0	-0.299044	-0.17887	-0.373391	0.324016	-0.177619	0	0	-0.227193	0.111013	0.0308061	-0.143417	-0.230211	0.138676	0.493591	1.5708	0	0	0.0340739	-0.321514	0.222718	1.15474	1.39261	0	0
0.01	1.5532	1.52284	0.232996	0.718787	-0.627956	1.02108	0.324315	-0.0260768	-0.31672	0.120747	-0.262064	0	0	-0.286764	-0.187372	-0.355958	0.352306	-0.193816	0	0	-0.207992	0.114521	0.0320067	-0.144671	-0.229454	0.144135	0.483435	1.5708	0	0	0.0326339	-0.315012	0.230853	1.12189	1.39056	0	0
0.02	1.44627	1.51639	0.34648	0.719693	-0.613278	1.021	0.333441	-0.0216984	-0.313155	0.153416	-0.238336	0	0	-0.273339	-0.199542	-0.339274	0.383341	-0.218768	0	0	-0.192201	0.122057	0.0338835	-0.149465	-0.229534	0.141306	0.481037	1.5708	0	0	0.0283088	-0.307822	0.236761	1.09161	1.38912	0	0
0.03	1.424	1.50914	0.375703	0.720576	-0.598621	1.02156	0.336403	-0.0145638	-0.305073	0.182195	-0.222232	0	0	-0.260602	-0.212815	-0.317242	0.418147	-0.237785	0	0	-0.182071	0.131569	0.0352514	-0.153133	-0.230907	0.139393	0.481142	1.5708	0	0	0.0232537	-0.299945	0.240151	1.06256	1.38789	0	0
0.04	1.40086	1.50088	0.405356	0.721476	-0.584209	1.02226	0.339933	-0.0058711	-0.293464	0.212127	-0.196239	0	0	-0.242907	-0.225647	-0.287853	0.459199	-0.266446	0	0	-0.171528	0.141742	0.0352189	-0.143931	-0.279408	0.336569	0.49584	1.33791	0	0	0.0167582	-0.292331	0.242276	1.03251	1.38463	0	0
0.05	1.34729	1.49206	0.465022	0.722594	-0.569991	1.02288	0.344877	0.0035908	-0.276085	0.23814	-0.169909	0	0	-0.218329	-0.236603	-0.250411	0.505764	-0.294623	0	0	-0.159972	0.150539	0.0399974	-0.159188	-0.234656	0.134939	0.4855	1.5708	0	0	0.0138938	-0.285371	0.250102	1.00112	1.37981	0	0
0.06	1.28531	1.4828	0.531965	0.723812	-0.555949	1.02321	0.350931	0.0128334	-0.262199	0.262141	-0.136736	0	0	-0.189243	-0.245259	-0.20808	0.556284	-0.325798	0	0	-0.145606	0.158143	0.0433489	-0.163087	-0.232872	0.1167	0.489116	1.5708	0	0	0.00974047	-0.282321	0.263278	0.970981	1.3625	0	0
0.07	1.25135	1.47487	0.573897	0.724881	-0.54242	1.02354	0.352269	0.0205468	-0.258143	0.279614	-0.115655	0	0	-0.158574	-0.251945	-0.155652	0.610421	-0.348355	0	0	-0.134775	0.164755	0.0426357	-0.164287	-0.234464	0.113128	0.494585	1.5708	0	0	0.00421989	-0.278881	0.270537	0.94392	1.34847	0	0
0.08	1.22249	1.46779	0.614427	0.725723	-0.529357	1.02374	0.350474	0.0263783	-0.262469	0.290921	-0.0965778	0	0	-0.12371	-0.255524	-0.0917013	0.668892	-0.369931	0	0	-0.124769	0.170035	0.0385377	-0.164668	-0.236133	0.110444	0.501494	1.5708	0	0	0.000421538	-0.27788	0.281929	0.917886	1.33194	0	0
0.09	1.19717	1.46113	0.654111	0.726309	-0.516702	1.02383	0.346101	0.0312073	-0.272156	0.296798	-0.0798762	0	0	-0.0856489	-0.255824	-0.0212693	0.728697	-0.393318	0	0	-0.115125	0.174578	0.0323543	-0.164213	-0.237853	0.107235	0.508867	1.5708	0	0	-0.00238746	-0.277251	0.294441	0.892251	1.31487	0	0
0.1	1.18223	1.4557	0.68529	0.726614	-0.504288	1.02392	0.338501	0.0350455	-0.284178	0.298974	-0.0654647	0	0	-0.0472328	-0.253136	0.0470897	0.787341	-0.420613	0	0	-0.106928	0.178288	0.0248333	-0.164173	-0.240006	0.103065	0.518436	1.5708	0	0	-0.00488437	-0.276371	0.306405	0.867252	1.29975	0	0
0.11	1.18387	1.45206	0.699717	0.726778	-0.492041	1.02426	0.326805	0.0386961	-0.298204	0.297725	-0.0550514	0	0	-0.0115107	-0.248368	0.108029	0.84291	-0.447309	0	0	-0.101722	0.181535	0.0175322	-0.163092	-0.243382	0.101491	0.528408	1.5708	0	0	-0.00709734	-0.274248	0.315717	0.842101	1.28995	0	0
0.12	1.19429	1.44996	0.703716	0.726915	-0.479935	1.02486	0.312207	0.0425331	-0.311908	0.293779	-0.0443822	0	0	0.0213857	-0.241834	0.159905	0.894637	-0.470911	0	0	-0.0982335	0.183932	0.0106535	-0.148884	-0.295474	0.28418	0.549646	1.34109	0	0	-0.00775814	-0.274777	0.333301	0.815649	1.2723	0	0
